<?xml version="1.0" standalone="no"?>
<!DOCTYPE svg PUBLIC "-//W3C//DTD SVG 20010904//EN"
 "http://www.w3.org/TR/2001/REC-SVG-20010904/DTD/svg10.dtd">
<svg version="1.0" xmlns="http://www.w3.org/2000/svg"
 width="225.000000pt" height="225.000000pt" viewBox="0 0 225.000000 225.000000"
 preserveAspectRatio="xMidYMid meet">
<metadata>
Created by potrace 1.11, written by Peter Selinger 2001-2013
</metadata>
<g transform="translate(0.000000,225.000000) scale(0.100000,-0.100000)"
fill="#000000" stroke="none">
<path d="M270 1405 l0 -125 85 0 c84 0 85 0 85 25 0 24 -3 25 -60 25 l-60 0 0
100 0 100 -25 0 -25 0 0 -125z"/>
<path d="M670 1405 c0 -118 1 -125 20 -125 11 0 20 5 20 12 0 9 3 9 12 0 19
-19 76 -14 98 8 15 15 20 33 20 70 0 76 -50 112 -111 80 -17 -10 -19 -7 -19
35 0 38 -3 45 -20 45 -19 0 -20 -7 -20 -125z m116 -1 c13 -19 15 -32 8 -51
-14 -40 -39 -51 -63 -29 -25 23 -27 63 -4 88 22 25 39 23 59 -8z"/>
<path d="M870 1405 l0 -125 25 0 25 0 0 125 0 125 -25 0 -25 0 0 -125z"/>
<path d="M485 1435 c-19 -18 -25 -35 -25 -65 0 -56 34 -90 90 -90 56 0 90 34
90 90 0 56 -34 90 -90 90 -30 0 -47 -6 -65 -25z m93 -17 c16 -16 16 -80 0 -96
-30 -30 -71 -2 -71 48 0 50 41 78 71 48z"/>
<path d="M967 1442 c-23 -25 -21 -32 8 -32 14 0 25 5 25 11 0 6 12 9 28 7 46
-5 33 -32 -22 -45 -50 -13 -66 -25 -66 -55 0 -34 27 -47 100 -46 l70 0 0 73
c0 90 -11 105 -79 105 -34 0 -53 -5 -64 -18z m89 -107 c-5 -21 -12 -26 -34
-23 -41 5 -41 35 0 46 40 11 42 10 34 -23z"/>
<path d="M1120 1453 c0 -4 12 -44 27 -90 24 -72 30 -83 50 -83 25 0 25 1 44
70 l12 45 17 -55 c14 -45 22 -56 42 -58 23 -3 27 3 48 75 12 43 25 84 27 91 3
7 -4 12 -20 12 -23 0 -27 -6 -38 -55 -7 -30 -15 -55 -19 -55 -4 0 -12 25 -19
55 -11 48 -16 55 -36 55 -20 0 -25 -7 -36 -55 -7 -30 -15 -55 -19 -55 -4 0
-12 25 -19 55 -11 48 -15 55 -37 55 -13 0 -24 -3 -24 -7z"/>
</g>
</svg>
